<mxfile host="Electron" modified="2023-05-22T05:35:53.826Z" agent="Mozilla/5.0 (Windows NT 10.0; Win64; x64) AppleWebKit/537.36 (KHTML, like Gecko) draw.io/21.2.8 Chrome/112.0.5615.165 Electron/24.2.0 Safari/537.36" etag="TJylH-xrpQ2L5gpntAYw" version="21.2.8" type="device">
  <diagram name="Page-1" id="z8_DMeVFrz-r03T_bh5p">
    <mxGraphModel dx="974" dy="575" grid="1" gridSize="10" guides="1" tooltips="1" connect="1" arrows="1" fold="1" page="1" pageScale="1" pageWidth="850" pageHeight="1100" math="0" shadow="0">
      <root>
        <mxCell id="0" />
        <mxCell id="1" parent="0" />
        <mxCell id="wrNVoRmsTCd5IjerdAtQ-37" value="&lt;font style=&quot;font-size: 10px;&quot;&gt;Leg 1&lt;/font&gt;" style="shape=mxgraph.electrical.electro-mechanical.motor_2;html=1;shadow=0;dashed=0;align=center;fontSize=30;strokeWidth=1;direction=south;" parent="1" vertex="1">
          <mxGeometry x="540" y="40" width="60" height="100" as="geometry" />
        </mxCell>
        <mxCell id="wrNVoRmsTCd5IjerdAtQ-38" value="&lt;font style=&quot;font-size: 10px;&quot;&gt;Leg 2&lt;/font&gt;" style="shape=mxgraph.electrical.electro-mechanical.motor_2;html=1;shadow=0;dashed=0;align=center;fontSize=30;strokeWidth=1;direction=south;" parent="1" vertex="1">
          <mxGeometry x="480" y="110" width="60" height="100" as="geometry" />
        </mxCell>
        <mxCell id="wrNVoRmsTCd5IjerdAtQ-39" value="&lt;font style=&quot;font-size: 10px;&quot;&gt;Wheel 1&lt;/font&gt;" style="shape=mxgraph.electrical.electro-mechanical.motor_2;html=1;shadow=0;dashed=0;align=center;fontSize=30;strokeWidth=1;direction=south;" parent="1" vertex="1">
          <mxGeometry x="440" y="190" width="60" height="100" as="geometry" />
        </mxCell>
        <mxCell id="wrNVoRmsTCd5IjerdAtQ-40" value="&lt;font style=&quot;font-size: 10px;&quot;&gt;Wheel 2&lt;/font&gt;" style="shape=mxgraph.electrical.electro-mechanical.motor_2;html=1;shadow=0;dashed=0;align=center;fontSize=30;strokeWidth=1;direction=south;" parent="1" vertex="1">
          <mxGeometry x="390" y="260" width="60" height="100" as="geometry" />
        </mxCell>
        <mxCell id="wrNVoRmsTCd5IjerdAtQ-41" value="" style="pointerEvents=1;verticalLabelPosition=bottom;shadow=0;dashed=0;align=center;html=1;verticalAlign=top;shape=mxgraph.electrical.signal_sources.dc_source_1;" parent="1" vertex="1">
          <mxGeometry x="70" y="295" width="70" height="75" as="geometry" />
        </mxCell>
        <mxCell id="wrNVoRmsTCd5IjerdAtQ-42" value="24V" style="text;html=1;strokeColor=none;fillColor=none;align=center;verticalAlign=middle;whiteSpace=wrap;rounded=0;" parent="1" vertex="1">
          <mxGeometry x="80" y="320" width="60" height="30" as="geometry" />
        </mxCell>
        <mxCell id="wrNVoRmsTCd5IjerdAtQ-44" value="" style="endArrow=none;html=1;rounded=0;exitX=0;exitY=0.8;exitDx=0;exitDy=0;" parent="1" source="mzY82UwGpCVkSk2-1u4O-4" target="wrNVoRmsTCd5IjerdAtQ-45" edge="1">
          <mxGeometry width="50" height="50" relative="1" as="geometry">
            <mxPoint x="130" y="70" as="sourcePoint" />
            <mxPoint x="180" y="40" as="targetPoint" />
            <Array as="points">
              <mxPoint x="117" y="40" />
            </Array>
          </mxGeometry>
        </mxCell>
        <mxCell id="wrNVoRmsTCd5IjerdAtQ-45" value="" style="pointerEvents=1;fillColor=strokeColor;verticalLabelPosition=bottom;shadow=0;dashed=0;align=center;html=1;verticalAlign=top;shape=mxgraph.electrical.diodes.diode;" parent="1" vertex="1">
          <mxGeometry x="170" y="30" width="50" height="20" as="geometry" />
        </mxCell>
        <mxCell id="wrNVoRmsTCd5IjerdAtQ-46" value="" style="pointerEvents=1;verticalLabelPosition=bottom;shadow=0;dashed=0;align=center;html=1;verticalAlign=top;shape=mxgraph.electrical.signal_sources.protective_earth;" parent="1" vertex="1">
          <mxGeometry x="97.5" y="510" width="25" height="20" as="geometry" />
        </mxCell>
        <mxCell id="wrNVoRmsTCd5IjerdAtQ-48" value="" style="endArrow=none;html=1;rounded=0;entryX=0.58;entryY=0.935;entryDx=0;entryDy=0;entryPerimeter=0;exitX=0.5;exitY=0;exitDx=0;exitDy=0;exitPerimeter=0;" parent="1" source="wrNVoRmsTCd5IjerdAtQ-46" target="wrNVoRmsTCd5IjerdAtQ-41" edge="1">
          <mxGeometry width="50" height="50" relative="1" as="geometry">
            <mxPoint x="80" y="250" as="sourcePoint" />
            <mxPoint x="130" y="200" as="targetPoint" />
          </mxGeometry>
        </mxCell>
        <mxCell id="wrNVoRmsTCd5IjerdAtQ-51" value="" style="endArrow=none;html=1;rounded=0;entryX=1;entryY=0.5;entryDx=0;entryDy=0;entryPerimeter=0;exitX=0;exitY=0.5;exitDx=0;exitDy=0;exitPerimeter=0;" parent="1" source="wrNVoRmsTCd5IjerdAtQ-37" target="wrNVoRmsTCd5IjerdAtQ-45" edge="1">
          <mxGeometry width="50" height="50" relative="1" as="geometry">
            <mxPoint x="240" y="120" as="sourcePoint" />
            <mxPoint x="290" y="70" as="targetPoint" />
          </mxGeometry>
        </mxCell>
        <mxCell id="wrNVoRmsTCd5IjerdAtQ-52" value="" style="endArrow=none;html=1;rounded=0;entryX=1;entryY=0.5;entryDx=0;entryDy=0;entryPerimeter=0;exitX=0;exitY=0.5;exitDx=0;exitDy=0;exitPerimeter=0;" parent="1" source="wrNVoRmsTCd5IjerdAtQ-40" target="wrNVoRmsTCd5IjerdAtQ-45" edge="1">
          <mxGeometry width="50" height="50" relative="1" as="geometry">
            <mxPoint x="190" y="160" as="sourcePoint" />
            <mxPoint x="240" y="110" as="targetPoint" />
            <Array as="points">
              <mxPoint x="220" y="260" />
            </Array>
          </mxGeometry>
        </mxCell>
        <mxCell id="wrNVoRmsTCd5IjerdAtQ-53" value="" style="endArrow=none;html=1;rounded=0;entryX=0;entryY=0.5;entryDx=0;entryDy=0;entryPerimeter=0;" parent="1" target="wrNVoRmsTCd5IjerdAtQ-38" edge="1">
          <mxGeometry width="50" height="50" relative="1" as="geometry">
            <mxPoint x="220" y="110" as="sourcePoint" />
            <mxPoint x="310" y="100" as="targetPoint" />
          </mxGeometry>
        </mxCell>
        <mxCell id="wrNVoRmsTCd5IjerdAtQ-54" value="" style="endArrow=none;html=1;rounded=0;entryX=0;entryY=0.5;entryDx=0;entryDy=0;entryPerimeter=0;" parent="1" target="wrNVoRmsTCd5IjerdAtQ-39" edge="1">
          <mxGeometry width="50" height="50" relative="1" as="geometry">
            <mxPoint x="220" y="190" as="sourcePoint" />
            <mxPoint x="310" y="190" as="targetPoint" />
          </mxGeometry>
        </mxCell>
        <mxCell id="wrNVoRmsTCd5IjerdAtQ-55" value="" style="endArrow=none;html=1;rounded=0;exitX=1;exitY=0.5;exitDx=0;exitDy=0;exitPerimeter=0;" parent="1" source="wrNVoRmsTCd5IjerdAtQ-37" edge="1">
          <mxGeometry width="50" height="50" relative="1" as="geometry">
            <mxPoint x="450" y="80" as="sourcePoint" />
            <mxPoint x="570" y="160" as="targetPoint" />
          </mxGeometry>
        </mxCell>
        <mxCell id="wrNVoRmsTCd5IjerdAtQ-56" value="" style="endArrow=none;html=1;rounded=0;exitX=1;exitY=0.5;exitDx=0;exitDy=0;exitPerimeter=0;" parent="1" source="wrNVoRmsTCd5IjerdAtQ-38" edge="1">
          <mxGeometry width="50" height="50" relative="1" as="geometry">
            <mxPoint x="390" y="109.57" as="sourcePoint" />
            <mxPoint x="570" y="160" as="targetPoint" />
            <Array as="points">
              <mxPoint x="570" y="210" />
            </Array>
          </mxGeometry>
        </mxCell>
        <mxCell id="wrNVoRmsTCd5IjerdAtQ-57" value="" style="endArrow=none;html=1;rounded=0;exitX=1;exitY=0.5;exitDx=0;exitDy=0;exitPerimeter=0;" parent="1" source="wrNVoRmsTCd5IjerdAtQ-39" edge="1">
          <mxGeometry width="50" height="50" relative="1" as="geometry">
            <mxPoint x="400" y="190" as="sourcePoint" />
            <mxPoint x="570" y="290" as="targetPoint" />
          </mxGeometry>
        </mxCell>
        <mxCell id="wrNVoRmsTCd5IjerdAtQ-59" value="" style="endArrow=none;html=1;rounded=0;exitX=1;exitY=0.5;exitDx=0;exitDy=0;exitPerimeter=0;" parent="1" source="wrNVoRmsTCd5IjerdAtQ-40" edge="1">
          <mxGeometry width="50" height="50" relative="1" as="geometry">
            <mxPoint x="410" y="259.57" as="sourcePoint" />
            <mxPoint x="570" y="360" as="targetPoint" />
          </mxGeometry>
        </mxCell>
        <mxCell id="wrNVoRmsTCd5IjerdAtQ-60" value="" style="endArrow=none;html=1;rounded=0;" parent="1" edge="1">
          <mxGeometry width="50" height="50" relative="1" as="geometry">
            <mxPoint x="570" y="210" as="sourcePoint" />
            <mxPoint x="110" y="480" as="targetPoint" />
            <Array as="points">
              <mxPoint x="570" y="480" />
            </Array>
          </mxGeometry>
        </mxCell>
        <mxCell id="wrNVoRmsTCd5IjerdAtQ-62" value="ENCODER" style="verticalLabelPosition=bottom;shadow=0;dashed=0;align=center;html=1;verticalAlign=top;shape=mxgraph.electrical.transmission.4_line_bus;" parent="1" vertex="1">
          <mxGeometry x="500" y="232.5" width="300" height="15" as="geometry" />
        </mxCell>
        <mxCell id="wrNVoRmsTCd5IjerdAtQ-64" value="CAN" style="verticalLabelPosition=bottom;shadow=0;dashed=0;align=center;html=1;verticalAlign=top;shape=mxgraph.electrical.transmission.3_line_bus;" parent="1" vertex="1">
          <mxGeometry x="600" y="86.25" width="200" height="7.5" as="geometry" />
        </mxCell>
        <mxCell id="wrNVoRmsTCd5IjerdAtQ-66" value="ENCODER" style="verticalLabelPosition=bottom;shadow=0;dashed=0;align=center;html=1;verticalAlign=top;shape=mxgraph.electrical.transmission.4_line_bus;" parent="1" vertex="1">
          <mxGeometry x="450" y="302.5" width="350" height="15" as="geometry" />
        </mxCell>
        <mxCell id="wrNVoRmsTCd5IjerdAtQ-67" value="CAN" style="verticalLabelPosition=bottom;shadow=0;dashed=0;align=center;html=1;verticalAlign=top;shape=mxgraph.electrical.transmission.3_line_bus;" parent="1" vertex="1">
          <mxGeometry x="540" y="156.25" width="260" height="7.5" as="geometry" />
        </mxCell>
        <mxCell id="wrNVoRmsTCd5IjerdAtQ-68" value="Step Down 24V -&amp;gt; 5V" style="whiteSpace=wrap;html=1;aspect=fixed;" parent="1" vertex="1">
          <mxGeometry x="180" y="370" width="80" height="80" as="geometry" />
        </mxCell>
        <mxCell id="wrNVoRmsTCd5IjerdAtQ-69" value="" style="endArrow=none;html=1;rounded=0;exitX=0.5;exitY=0;exitDx=0;exitDy=0;" parent="1" source="wrNVoRmsTCd5IjerdAtQ-68" edge="1">
          <mxGeometry width="50" height="50" relative="1" as="geometry">
            <mxPoint x="140" y="230" as="sourcePoint" />
            <mxPoint x="220" y="260" as="targetPoint" />
          </mxGeometry>
        </mxCell>
        <mxCell id="wrNVoRmsTCd5IjerdAtQ-70" value="" style="endArrow=none;html=1;rounded=0;exitX=1;exitY=0.5;exitDx=0;exitDy=0;" parent="1" source="wrNVoRmsTCd5IjerdAtQ-68" edge="1">
          <mxGeometry width="50" height="50" relative="1" as="geometry">
            <mxPoint x="300" y="370" as="sourcePoint" />
            <mxPoint x="400" y="410" as="targetPoint" />
          </mxGeometry>
        </mxCell>
        <mxCell id="wrNVoRmsTCd5IjerdAtQ-71" value="central IMU" style="whiteSpace=wrap;html=1;aspect=fixed;" parent="1" vertex="1">
          <mxGeometry x="400" y="390" width="40" height="40" as="geometry" />
        </mxCell>
        <mxCell id="wrNVoRmsTCd5IjerdAtQ-74" value="" style="endArrow=none;html=1;rounded=0;entryX=0.5;entryY=1;entryDx=0;entryDy=0;" parent="1" target="wrNVoRmsTCd5IjerdAtQ-71" edge="1">
          <mxGeometry width="50" height="50" relative="1" as="geometry">
            <mxPoint x="420" y="480" as="sourcePoint" />
            <mxPoint x="710" y="400" as="targetPoint" />
          </mxGeometry>
        </mxCell>
        <mxCell id="wrNVoRmsTCd5IjerdAtQ-75" value="" style="endArrow=none;html=1;rounded=0;exitX=1;exitY=0.5;exitDx=0;exitDy=0;entryX=0;entryY=0.5;entryDx=0;entryDy=0;" parent="1" source="wrNVoRmsTCd5IjerdAtQ-71" target="wrNVoRmsTCd5IjerdAtQ-100" edge="1">
          <mxGeometry width="50" height="50" relative="1" as="geometry">
            <mxPoint x="650" y="450" as="sourcePoint" />
            <mxPoint x="800" y="410" as="targetPoint" />
            <Array as="points">
              <mxPoint x="680" y="410" />
              <mxPoint x="680" y="333" />
            </Array>
          </mxGeometry>
        </mxCell>
        <mxCell id="wrNVoRmsTCd5IjerdAtQ-77" value="" style="shape=table;startSize=0;container=1;collapsible=0;childLayout=tableLayout;" parent="1" vertex="1">
          <mxGeometry x="920" y="50" width="220" height="345" as="geometry" />
        </mxCell>
        <mxCell id="wrNVoRmsTCd5IjerdAtQ-78" value="" style="shape=tableRow;horizontal=0;startSize=0;swimlaneHead=0;swimlaneBody=0;strokeColor=inherit;top=0;left=0;bottom=0;right=0;collapsible=0;dropTarget=0;fillColor=none;points=[[0,0.5],[1,0.5]];portConstraint=eastwest;" parent="wrNVoRmsTCd5IjerdAtQ-77" vertex="1">
          <mxGeometry width="220" height="20" as="geometry" />
        </mxCell>
        <mxCell id="wrNVoRmsTCd5IjerdAtQ-79" value="CAN Data 1" style="shape=partialRectangle;html=1;whiteSpace=wrap;connectable=0;strokeColor=inherit;overflow=hidden;fillColor=none;top=0;left=0;bottom=0;right=0;pointerEvents=1;" parent="wrNVoRmsTCd5IjerdAtQ-78" vertex="1">
          <mxGeometry width="220" height="20" as="geometry">
            <mxRectangle width="220" height="20" as="alternateBounds" />
          </mxGeometry>
        </mxCell>
        <mxCell id="wrNVoRmsTCd5IjerdAtQ-80" value="" style="shape=tableRow;horizontal=0;startSize=0;swimlaneHead=0;swimlaneBody=0;strokeColor=inherit;top=0;left=0;bottom=0;right=0;collapsible=0;dropTarget=0;fillColor=none;points=[[0,0.5],[1,0.5]];portConstraint=eastwest;" parent="wrNVoRmsTCd5IjerdAtQ-77" vertex="1">
          <mxGeometry y="20" width="220" height="25" as="geometry" />
        </mxCell>
        <mxCell id="wrNVoRmsTCd5IjerdAtQ-81" value="CAN data 2" style="shape=partialRectangle;html=1;whiteSpace=wrap;connectable=0;strokeColor=inherit;overflow=hidden;fillColor=none;top=0;left=0;bottom=0;right=0;pointerEvents=1;" parent="wrNVoRmsTCd5IjerdAtQ-80" vertex="1">
          <mxGeometry width="220" height="25" as="geometry">
            <mxRectangle width="220" height="25" as="alternateBounds" />
          </mxGeometry>
        </mxCell>
        <mxCell id="wrNVoRmsTCd5IjerdAtQ-82" value="" style="shape=tableRow;horizontal=0;startSize=0;swimlaneHead=0;swimlaneBody=0;strokeColor=inherit;top=0;left=0;bottom=0;right=0;collapsible=0;dropTarget=0;fillColor=none;points=[[0,0.5],[1,0.5]];portConstraint=eastwest;" parent="wrNVoRmsTCd5IjerdAtQ-77" vertex="1">
          <mxGeometry y="45" width="220" height="25" as="geometry" />
        </mxCell>
        <mxCell id="wrNVoRmsTCd5IjerdAtQ-83" value="3.2v source" style="shape=partialRectangle;html=1;whiteSpace=wrap;connectable=0;strokeColor=inherit;overflow=hidden;fillColor=none;top=0;left=0;bottom=0;right=0;pointerEvents=1;" parent="wrNVoRmsTCd5IjerdAtQ-82" vertex="1">
          <mxGeometry width="220" height="25" as="geometry">
            <mxRectangle width="220" height="25" as="alternateBounds" />
          </mxGeometry>
        </mxCell>
        <mxCell id="wrNVoRmsTCd5IjerdAtQ-84" value="" style="shape=tableRow;horizontal=0;startSize=0;swimlaneHead=0;swimlaneBody=0;strokeColor=inherit;top=0;left=0;bottom=0;right=0;collapsible=0;dropTarget=0;fillColor=none;points=[[0,0.5],[1,0.5]];portConstraint=eastwest;" parent="wrNVoRmsTCd5IjerdAtQ-77" vertex="1">
          <mxGeometry y="70" width="220" height="25" as="geometry" />
        </mxCell>
        <mxCell id="wrNVoRmsTCd5IjerdAtQ-85" value="enc1-1" style="shape=partialRectangle;html=1;whiteSpace=wrap;connectable=0;strokeColor=inherit;overflow=hidden;fillColor=none;top=0;left=0;bottom=0;right=0;pointerEvents=1;" parent="wrNVoRmsTCd5IjerdAtQ-84" vertex="1">
          <mxGeometry width="220" height="25" as="geometry">
            <mxRectangle width="220" height="25" as="alternateBounds" />
          </mxGeometry>
        </mxCell>
        <mxCell id="wrNVoRmsTCd5IjerdAtQ-86" value="" style="shape=tableRow;horizontal=0;startSize=0;swimlaneHead=0;swimlaneBody=0;strokeColor=inherit;top=0;left=0;bottom=0;right=0;collapsible=0;dropTarget=0;fillColor=none;points=[[0,0.5],[1,0.5]];portConstraint=eastwest;" parent="wrNVoRmsTCd5IjerdAtQ-77" vertex="1">
          <mxGeometry y="95" width="220" height="25" as="geometry" />
        </mxCell>
        <mxCell id="wrNVoRmsTCd5IjerdAtQ-87" value="enc1-2" style="shape=partialRectangle;html=1;whiteSpace=wrap;connectable=0;strokeColor=inherit;overflow=hidden;fillColor=none;top=0;left=0;bottom=0;right=0;pointerEvents=1;" parent="wrNVoRmsTCd5IjerdAtQ-86" vertex="1">
          <mxGeometry width="220" height="25" as="geometry">
            <mxRectangle width="220" height="25" as="alternateBounds" />
          </mxGeometry>
        </mxCell>
        <mxCell id="wrNVoRmsTCd5IjerdAtQ-88" value="" style="shape=tableRow;horizontal=0;startSize=0;swimlaneHead=0;swimlaneBody=0;strokeColor=inherit;top=0;left=0;bottom=0;right=0;collapsible=0;dropTarget=0;fillColor=none;points=[[0,0.5],[1,0.5]];portConstraint=eastwest;" parent="wrNVoRmsTCd5IjerdAtQ-77" vertex="1">
          <mxGeometry y="120" width="220" height="25" as="geometry" />
        </mxCell>
        <mxCell id="wrNVoRmsTCd5IjerdAtQ-89" value="enc1-3" style="shape=partialRectangle;html=1;whiteSpace=wrap;connectable=0;strokeColor=inherit;overflow=hidden;fillColor=none;top=0;left=0;bottom=0;right=0;pointerEvents=1;" parent="wrNVoRmsTCd5IjerdAtQ-88" vertex="1">
          <mxGeometry width="220" height="25" as="geometry">
            <mxRectangle width="220" height="25" as="alternateBounds" />
          </mxGeometry>
        </mxCell>
        <mxCell id="wrNVoRmsTCd5IjerdAtQ-90" value="" style="shape=tableRow;horizontal=0;startSize=0;swimlaneHead=0;swimlaneBody=0;strokeColor=inherit;top=0;left=0;bottom=0;right=0;collapsible=0;dropTarget=0;fillColor=none;points=[[0,0.5],[1,0.5]];portConstraint=eastwest;" parent="wrNVoRmsTCd5IjerdAtQ-77" vertex="1">
          <mxGeometry y="145" width="220" height="25" as="geometry" />
        </mxCell>
        <mxCell id="wrNVoRmsTCd5IjerdAtQ-91" value="enc1-3" style="shape=partialRectangle;html=1;whiteSpace=wrap;connectable=0;strokeColor=inherit;overflow=hidden;fillColor=none;top=0;left=0;bottom=0;right=0;pointerEvents=1;" parent="wrNVoRmsTCd5IjerdAtQ-90" vertex="1">
          <mxGeometry width="220" height="25" as="geometry">
            <mxRectangle width="220" height="25" as="alternateBounds" />
          </mxGeometry>
        </mxCell>
        <mxCell id="wrNVoRmsTCd5IjerdAtQ-92" value="" style="shape=tableRow;horizontal=0;startSize=0;swimlaneHead=0;swimlaneBody=0;strokeColor=inherit;top=0;left=0;bottom=0;right=0;collapsible=0;dropTarget=0;fillColor=none;points=[[0,0.5],[1,0.5]];portConstraint=eastwest;" parent="wrNVoRmsTCd5IjerdAtQ-77" vertex="1">
          <mxGeometry y="170" width="220" height="25" as="geometry" />
        </mxCell>
        <mxCell id="wrNVoRmsTCd5IjerdAtQ-93" value="enc2-1" style="shape=partialRectangle;html=1;whiteSpace=wrap;connectable=0;strokeColor=inherit;overflow=hidden;fillColor=none;top=0;left=0;bottom=0;right=0;pointerEvents=1;" parent="wrNVoRmsTCd5IjerdAtQ-92" vertex="1">
          <mxGeometry width="220" height="25" as="geometry">
            <mxRectangle width="220" height="25" as="alternateBounds" />
          </mxGeometry>
        </mxCell>
        <mxCell id="wrNVoRmsTCd5IjerdAtQ-94" value="" style="shape=tableRow;horizontal=0;startSize=0;swimlaneHead=0;swimlaneBody=0;strokeColor=inherit;top=0;left=0;bottom=0;right=0;collapsible=0;dropTarget=0;fillColor=none;points=[[0,0.5],[1,0.5]];portConstraint=eastwest;" parent="wrNVoRmsTCd5IjerdAtQ-77" vertex="1">
          <mxGeometry y="195" width="220" height="25" as="geometry" />
        </mxCell>
        <mxCell id="wrNVoRmsTCd5IjerdAtQ-95" value="enc2-2" style="shape=partialRectangle;html=1;whiteSpace=wrap;connectable=0;strokeColor=inherit;overflow=hidden;fillColor=none;top=0;left=0;bottom=0;right=0;pointerEvents=1;" parent="wrNVoRmsTCd5IjerdAtQ-94" vertex="1">
          <mxGeometry width="220" height="25" as="geometry">
            <mxRectangle width="220" height="25" as="alternateBounds" />
          </mxGeometry>
        </mxCell>
        <mxCell id="wrNVoRmsTCd5IjerdAtQ-96" value="" style="shape=tableRow;horizontal=0;startSize=0;swimlaneHead=0;swimlaneBody=0;strokeColor=inherit;top=0;left=0;bottom=0;right=0;collapsible=0;dropTarget=0;fillColor=none;points=[[0,0.5],[1,0.5]];portConstraint=eastwest;" parent="wrNVoRmsTCd5IjerdAtQ-77" vertex="1">
          <mxGeometry y="220" width="220" height="25" as="geometry" />
        </mxCell>
        <mxCell id="wrNVoRmsTCd5IjerdAtQ-97" value="enc2-3" style="shape=partialRectangle;html=1;whiteSpace=wrap;connectable=0;strokeColor=inherit;overflow=hidden;fillColor=none;top=0;left=0;bottom=0;right=0;pointerEvents=1;" parent="wrNVoRmsTCd5IjerdAtQ-96" vertex="1">
          <mxGeometry width="220" height="25" as="geometry">
            <mxRectangle width="220" height="25" as="alternateBounds" />
          </mxGeometry>
        </mxCell>
        <mxCell id="wrNVoRmsTCd5IjerdAtQ-98" value="" style="shape=tableRow;horizontal=0;startSize=0;swimlaneHead=0;swimlaneBody=0;strokeColor=inherit;top=0;left=0;bottom=0;right=0;collapsible=0;dropTarget=0;fillColor=none;points=[[0,0.5],[1,0.5]];portConstraint=eastwest;" parent="wrNVoRmsTCd5IjerdAtQ-77" vertex="1">
          <mxGeometry y="245" width="220" height="25" as="geometry" />
        </mxCell>
        <mxCell id="wrNVoRmsTCd5IjerdAtQ-99" value="enc2-4" style="shape=partialRectangle;html=1;whiteSpace=wrap;connectable=0;strokeColor=inherit;overflow=hidden;fillColor=none;top=0;left=0;bottom=0;right=0;pointerEvents=1;" parent="wrNVoRmsTCd5IjerdAtQ-98" vertex="1">
          <mxGeometry width="220" height="25" as="geometry">
            <mxRectangle width="220" height="25" as="alternateBounds" />
          </mxGeometry>
        </mxCell>
        <mxCell id="wrNVoRmsTCd5IjerdAtQ-100" value="" style="shape=tableRow;horizontal=0;startSize=0;swimlaneHead=0;swimlaneBody=0;strokeColor=inherit;top=0;left=0;bottom=0;right=0;collapsible=0;dropTarget=0;fillColor=none;points=[[0,0.5],[1,0.5]];portConstraint=eastwest;" parent="wrNVoRmsTCd5IjerdAtQ-77" vertex="1">
          <mxGeometry y="270" width="220" height="25" as="geometry" />
        </mxCell>
        <mxCell id="wrNVoRmsTCd5IjerdAtQ-101" value="Central IMU" style="shape=partialRectangle;html=1;whiteSpace=wrap;connectable=0;strokeColor=inherit;overflow=hidden;fillColor=none;top=0;left=0;bottom=0;right=0;pointerEvents=1;" parent="wrNVoRmsTCd5IjerdAtQ-100" vertex="1">
          <mxGeometry width="220" height="25" as="geometry">
            <mxRectangle width="220" height="25" as="alternateBounds" />
          </mxGeometry>
        </mxCell>
        <mxCell id="wrNVoRmsTCd5IjerdAtQ-102" value="" style="shape=tableRow;horizontal=0;startSize=0;swimlaneHead=0;swimlaneBody=0;strokeColor=inherit;top=0;left=0;bottom=0;right=0;collapsible=0;dropTarget=0;fillColor=none;points=[[0,0.5],[1,0.5]];portConstraint=eastwest;" parent="wrNVoRmsTCd5IjerdAtQ-77" vertex="1">
          <mxGeometry y="295" width="220" height="25" as="geometry" />
        </mxCell>
        <mxCell id="wrNVoRmsTCd5IjerdAtQ-103" value="" style="shape=partialRectangle;html=1;whiteSpace=wrap;connectable=0;strokeColor=inherit;overflow=hidden;fillColor=none;top=0;left=0;bottom=0;right=0;pointerEvents=1;" parent="wrNVoRmsTCd5IjerdAtQ-102" vertex="1">
          <mxGeometry width="220" height="25" as="geometry">
            <mxRectangle width="220" height="25" as="alternateBounds" />
          </mxGeometry>
        </mxCell>
        <mxCell id="wrNVoRmsTCd5IjerdAtQ-104" value="" style="shape=tableRow;horizontal=0;startSize=0;swimlaneHead=0;swimlaneBody=0;strokeColor=inherit;top=0;left=0;bottom=0;right=0;collapsible=0;dropTarget=0;fillColor=none;points=[[0,0.5],[1,0.5]];portConstraint=eastwest;" parent="wrNVoRmsTCd5IjerdAtQ-77" vertex="1">
          <mxGeometry y="320" width="220" height="25" as="geometry" />
        </mxCell>
        <mxCell id="wrNVoRmsTCd5IjerdAtQ-105" value="" style="shape=partialRectangle;html=1;whiteSpace=wrap;connectable=0;strokeColor=inherit;overflow=hidden;fillColor=none;top=0;left=0;bottom=0;right=0;pointerEvents=1;" parent="wrNVoRmsTCd5IjerdAtQ-104" vertex="1">
          <mxGeometry width="220" height="25" as="geometry">
            <mxRectangle width="220" height="25" as="alternateBounds" />
          </mxGeometry>
        </mxCell>
        <mxCell id="wrNVoRmsTCd5IjerdAtQ-107" value="" style="endArrow=none;html=1;rounded=0;exitX=1;exitY=0;exitDx=0;exitDy=0;exitPerimeter=0;" parent="1" source="wrNVoRmsTCd5IjerdAtQ-64" edge="1">
          <mxGeometry width="50" height="50" relative="1" as="geometry">
            <mxPoint x="810" y="80" as="sourcePoint" />
            <mxPoint x="840" y="160" as="targetPoint" />
            <Array as="points">
              <mxPoint x="840" y="86" />
            </Array>
          </mxGeometry>
        </mxCell>
        <mxCell id="wrNVoRmsTCd5IjerdAtQ-108" value="" style="endArrow=none;html=1;rounded=0;exitX=1;exitY=1;exitDx=0;exitDy=0;exitPerimeter=0;" parent="1" source="wrNVoRmsTCd5IjerdAtQ-64" edge="1">
          <mxGeometry width="50" height="50" relative="1" as="geometry">
            <mxPoint x="820" y="160" as="sourcePoint" />
            <mxPoint x="570" y="480" as="targetPoint" />
            <Array as="points">
              <mxPoint x="820" y="94" />
              <mxPoint x="820" y="480" />
              <mxPoint x="660" y="480" />
            </Array>
          </mxGeometry>
        </mxCell>
        <mxCell id="wrNVoRmsTCd5IjerdAtQ-110" value="" style="endArrow=none;html=1;rounded=0;exitX=1;exitY=1;exitDx=0;exitDy=0;exitPerimeter=0;" parent="1" source="wrNVoRmsTCd5IjerdAtQ-67" edge="1">
          <mxGeometry width="50" height="50" relative="1" as="geometry">
            <mxPoint x="820" y="210" as="sourcePoint" />
            <mxPoint x="820" y="164" as="targetPoint" />
          </mxGeometry>
        </mxCell>
        <mxCell id="wrNVoRmsTCd5IjerdAtQ-111" value="" style="endArrow=none;html=1;rounded=0;exitX=1;exitY=1;exitDx=0;exitDy=0;exitPerimeter=0;entryX=0.002;entryY=0.462;entryDx=0;entryDy=0;entryPerimeter=0;" parent="1" source="wrNVoRmsTCd5IjerdAtQ-62" target="wrNVoRmsTCd5IjerdAtQ-77" edge="1">
          <mxGeometry width="50" height="50" relative="1" as="geometry">
            <mxPoint x="810" y="260" as="sourcePoint" />
            <mxPoint x="840" y="248" as="targetPoint" />
            <Array as="points">
              <mxPoint x="840" y="248" />
              <mxPoint x="890" y="248" />
              <mxPoint x="890" y="210" />
            </Array>
          </mxGeometry>
        </mxCell>
        <mxCell id="wrNVoRmsTCd5IjerdAtQ-112" value="" style="endArrow=none;html=1;rounded=0;exitX=1;exitY=1;exitDx=0;exitDy=0;exitPerimeter=0;entryX=0;entryY=0.5;entryDx=0;entryDy=0;" parent="1" source="wrNVoRmsTCd5IjerdAtQ-66" target="wrNVoRmsTCd5IjerdAtQ-98" edge="1">
          <mxGeometry width="50" height="50" relative="1" as="geometry">
            <mxPoint x="800" y="350" as="sourcePoint" />
            <mxPoint x="830" y="318" as="targetPoint" />
            <Array as="points">
              <mxPoint x="890" y="318" />
              <mxPoint x="890" y="308" />
            </Array>
          </mxGeometry>
        </mxCell>
        <mxCell id="wrNVoRmsTCd5IjerdAtQ-113" value="" style="endArrow=none;html=1;rounded=0;exitX=1;exitY=0;exitDx=0;exitDy=0;exitPerimeter=0;entryX=0;entryY=0.5;entryDx=0;entryDy=0;" parent="1" source="wrNVoRmsTCd5IjerdAtQ-67" target="wrNVoRmsTCd5IjerdAtQ-82" edge="1">
          <mxGeometry width="50" height="50" relative="1" as="geometry">
            <mxPoint x="810" y="150" as="sourcePoint" />
            <mxPoint x="840" y="210" as="targetPoint" />
            <Array as="points">
              <mxPoint x="830" y="156" />
              <mxPoint x="830" y="110" />
            </Array>
          </mxGeometry>
        </mxCell>
        <mxCell id="wrNVoRmsTCd5IjerdAtQ-114" value="" style="endArrow=none;html=1;rounded=0;exitX=1;exitY=0;exitDx=0;exitDy=0;exitPerimeter=0;entryX=0;entryY=0.5;entryDx=0;entryDy=0;" parent="1" source="wrNVoRmsTCd5IjerdAtQ-62" target="wrNVoRmsTCd5IjerdAtQ-84" edge="1">
          <mxGeometry width="50" height="50" relative="1" as="geometry">
            <mxPoint x="810" y="240" as="sourcePoint" />
            <mxPoint x="840" y="233" as="targetPoint" />
            <Array as="points">
              <mxPoint x="860" y="233" />
              <mxPoint x="860" y="133" />
            </Array>
          </mxGeometry>
        </mxCell>
        <mxCell id="wrNVoRmsTCd5IjerdAtQ-115" value="" style="endArrow=none;html=1;rounded=0;exitX=1;exitY=0;exitDx=0;exitDy=0;exitPerimeter=0;entryX=0;entryY=0.5;entryDx=0;entryDy=0;" parent="1" source="wrNVoRmsTCd5IjerdAtQ-66" target="wrNVoRmsTCd5IjerdAtQ-92" edge="1">
          <mxGeometry width="50" height="50" relative="1" as="geometry">
            <mxPoint x="810" y="310" as="sourcePoint" />
            <mxPoint x="830" y="303" as="targetPoint" />
            <Array as="points">
              <mxPoint x="850" y="303" />
              <mxPoint x="850" y="260" />
              <mxPoint x="900" y="260" />
              <mxPoint x="900" y="233" />
            </Array>
          </mxGeometry>
        </mxCell>
        <mxCell id="wrNVoRmsTCd5IjerdAtQ-117" value="" style="endArrow=none;html=1;rounded=0;exitX=1;exitY=0.33;exitDx=0;exitDy=0;exitPerimeter=0;entryX=0;entryY=0.5;entryDx=0;entryDy=0;" parent="1" source="wrNVoRmsTCd5IjerdAtQ-62" target="wrNVoRmsTCd5IjerdAtQ-86" edge="1">
          <mxGeometry width="50" height="50" relative="1" as="geometry">
            <mxPoint x="810" y="239.75" as="sourcePoint" />
            <mxPoint x="850" y="239.75" as="targetPoint" />
            <Array as="points">
              <mxPoint x="870" y="237" />
              <mxPoint x="870" y="158" />
            </Array>
          </mxGeometry>
        </mxCell>
        <mxCell id="wrNVoRmsTCd5IjerdAtQ-118" value="" style="endArrow=none;html=1;rounded=0;exitX=1;exitY=0.67;exitDx=0;exitDy=0;exitPerimeter=0;entryX=-0.002;entryY=0.393;entryDx=0;entryDy=0;entryPerimeter=0;" parent="1" source="wrNVoRmsTCd5IjerdAtQ-62" target="wrNVoRmsTCd5IjerdAtQ-77" edge="1">
          <mxGeometry width="50" height="50" relative="1" as="geometry">
            <mxPoint x="830" y="260" as="sourcePoint" />
            <mxPoint x="870" y="260" as="targetPoint" />
            <Array as="points">
              <mxPoint x="850" y="243" />
              <mxPoint x="870" y="243" />
              <mxPoint x="880" y="243" />
              <mxPoint x="880" y="186" />
            </Array>
          </mxGeometry>
        </mxCell>
        <mxCell id="wrNVoRmsTCd5IjerdAtQ-119" value="" style="endArrow=none;html=1;rounded=0;exitX=1;exitY=0.67;exitDx=0;exitDy=0;exitPerimeter=0;entryX=0;entryY=0.5;entryDx=0;entryDy=0;" parent="1" source="wrNVoRmsTCd5IjerdAtQ-66" target="wrNVoRmsTCd5IjerdAtQ-96" edge="1">
          <mxGeometry width="50" height="50" relative="1" as="geometry">
            <mxPoint x="830" y="317.5" as="sourcePoint" />
            <mxPoint x="870" y="317.5" as="targetPoint" />
            <Array as="points">
              <mxPoint x="830" y="313" />
              <mxPoint x="870" y="313" />
              <mxPoint x="870" y="283" />
            </Array>
          </mxGeometry>
        </mxCell>
        <mxCell id="wrNVoRmsTCd5IjerdAtQ-120" value="" style="endArrow=none;html=1;rounded=0;exitX=1;exitY=0.33;exitDx=0;exitDy=0;exitPerimeter=0;entryX=0;entryY=0.5;entryDx=0;entryDy=0;" parent="1" source="wrNVoRmsTCd5IjerdAtQ-66" target="wrNVoRmsTCd5IjerdAtQ-94" edge="1">
          <mxGeometry width="50" height="50" relative="1" as="geometry">
            <mxPoint x="830" y="309.75" as="sourcePoint" />
            <mxPoint x="870" y="309.75" as="targetPoint" />
            <Array as="points">
              <mxPoint x="840" y="307" />
              <mxPoint x="860" y="307" />
              <mxPoint x="860" y="270" />
              <mxPoint x="900" y="270" />
              <mxPoint x="910" y="270" />
              <mxPoint x="910" y="258" />
            </Array>
          </mxGeometry>
        </mxCell>
        <mxCell id="wrNVoRmsTCd5IjerdAtQ-121" value="" style="endArrow=none;html=1;rounded=0;exitX=1;exitY=0.5;exitDx=0;exitDy=0;exitPerimeter=0;entryX=0;entryY=0.5;entryDx=0;entryDy=0;" parent="1" source="wrNVoRmsTCd5IjerdAtQ-64" target="wrNVoRmsTCd5IjerdAtQ-78" edge="1">
          <mxGeometry width="50" height="50" relative="1" as="geometry">
            <mxPoint x="800" y="112.5" as="sourcePoint" />
            <mxPoint x="880" y="122.5" as="targetPoint" />
            <Array as="points">
              <mxPoint x="820" y="90" />
              <mxPoint x="820" y="60" />
            </Array>
          </mxGeometry>
        </mxCell>
        <mxCell id="wrNVoRmsTCd5IjerdAtQ-122" value="" style="endArrow=none;html=1;rounded=0;exitX=1;exitY=0.5;exitDx=0;exitDy=0;exitPerimeter=0;entryX=0;entryY=0.5;entryDx=0;entryDy=0;" parent="1" source="wrNVoRmsTCd5IjerdAtQ-67" target="wrNVoRmsTCd5IjerdAtQ-80" edge="1">
          <mxGeometry width="50" height="50" relative="1" as="geometry">
            <mxPoint x="800" y="130" as="sourcePoint" />
            <mxPoint x="880" y="140" as="targetPoint" />
            <Array as="points">
              <mxPoint x="850" y="160" />
              <mxPoint x="850" y="110" />
              <mxPoint x="850" y="83" />
            </Array>
          </mxGeometry>
        </mxCell>
        <mxCell id="wrNVoRmsTCd5IjerdAtQ-123" value="STM32" style="text;html=1;strokeColor=none;fillColor=none;align=center;verticalAlign=middle;whiteSpace=wrap;rounded=0;" parent="1" vertex="1">
          <mxGeometry x="1000" y="20" width="60" height="30" as="geometry" />
        </mxCell>
        <mxCell id="mzY82UwGpCVkSk2-1u4O-3" value="" style="endArrow=none;html=1;rounded=0;exitX=0.58;exitY=0.135;exitDx=0;exitDy=0;exitPerimeter=0;entryX=1;entryY=0.8;entryDx=0;entryDy=0;" edge="1" parent="1" source="wrNVoRmsTCd5IjerdAtQ-41" target="mzY82UwGpCVkSk2-1u4O-4">
          <mxGeometry width="50" height="50" relative="1" as="geometry">
            <mxPoint x="121" y="220" as="sourcePoint" />
            <mxPoint x="110" y="180" as="targetPoint" />
            <Array as="points">
              <mxPoint x="110" y="169" />
            </Array>
          </mxGeometry>
        </mxCell>
        <mxCell id="mzY82UwGpCVkSk2-1u4O-4" value="" style="html=1;shape=mxgraph.electrical.electro-mechanical.singleSwitch;aspect=fixed;elSwitchState=on;direction=south;" vertex="1" parent="1">
          <mxGeometry x="112.5" y="93.75" width="20" height="75" as="geometry" />
        </mxCell>
      </root>
    </mxGraphModel>
  </diagram>
</mxfile>
